<svg id="Capa_1" data-name="Capa 1" xmlns="http://www.w3.org/2000/svg" viewBox="0 0 1080 1080"><defs><style>.cls-1{fill:#581c87;}.cls-2{fill:#a855f7;}</style></defs><title>logo app</title><path class="cls-1" d="M231.06,700.56V675.72H202.52v24.85H188.3v-63h14.22v26.29h28.54V637.54h14.22v63Z"/><path class="cls-1" d="M287,694.89c-3.24,4.05-8.46,6.3-15.21,6.3-10.35,0-16.66-6.3-16.66-15.12,0-9.09,6.57-14.49,18.46-14.58h13.32v-.9c0-5.13-3.42-8.1-10.08-8.1a30.66,30.66,0,0,0-14.4,4.23l-4.32-9.54c7.2-3.6,13.41-5.58,21.88-5.58,13,0,20.44,6.48,20.53,17.38l.09,31.6H287ZM286.88,684v-4.32H276c-5.31,0-7.92,1.62-7.92,5.49,0,3.69,2.88,6.12,7.56,6.12C281.48,691.29,286.07,688.14,286.88,684Z"/><path class="cls-1" d="M347.83,656.9l-4.77,9.45c-5.31-3-10.71-4.68-14.76-4.68-3.24,0-5.58,1.08-5.58,3.6,0,7.29,25.57,3.6,25.48,20.71,0,9.9-8.73,15.12-19.72,15.12-7.83,0-15.48-2.34-21-6.75L312,685a29.18,29.18,0,0,0,16.83,6c3.51,0,6.12-1.17,6.12-3.78,0-7.74-25.12-3.6-25.12-20.62,0-10,8.55-15.12,19.09-15.12A36.12,36.12,0,0,1,347.83,656.9Z"/><path class="cls-1" d="M406.35,670.13v30.43H392.48V674.19c0-6.12-3.6-9.9-9.54-9.9-6.93.09-11.16,5.31-11.16,12.42v23.86H357.91v-66.8h13.86v26.92c3.42-6,9.18-9,16.75-9.09C399.41,651.59,406.35,658.79,406.35,670.13Z"/><path class="cls-1" d="M466.58,670.13v30.43H452.71V674.19c0-6.12-3.6-9.9-9.54-9.9-6.93.09-11.07,5.31-11.07,12.42v23.86H418.23V652.13H432.1v8.46c3.42-6,9.18-8.91,16.75-9C459.65,651.59,466.58,658.79,466.58,670.13Z"/><path class="cls-1" d="M526.36,676.35c0,14.76-10.44,24.76-25.93,24.76s-26-10-26-24.76,10.44-24.67,26-24.67S526.36,661.49,526.36,676.35Zm-38,.18c0,7.92,4.86,13.32,12.06,13.32s12.06-5.4,12.06-13.32-5-13.32-12.06-13.32S488.37,668.6,488.37,676.53Z"/><path class="cls-1" d="M583.35,700.56H569.57v-7.11c-3.42,5-8.64,7.65-15.3,7.65-13.77,0-22.87-10-22.87-24.94,0-14.76,9-24.58,22.51-24.58,6.84,0,12.15,2.7,15.67,7.65V633.76h13.77Zm-13.77-24c0-7.92-5-13.41-12.06-13.41s-12.15,5.58-12.24,13.41c.09,7.92,5,13.41,12.24,13.41C564.62,689.94,569.57,684.45,569.57,676.53Z"/><path class="cls-1" d="M641.78,680.58H607c1.62,6.12,6.3,9.72,12.51,9.72a17.17,17.17,0,0,0,12.24-5.13l7.29,7.38c-4.86,5.4-12,8.55-20.71,8.55-15.48,0-25.3-9.9-25.3-24.58,0-14.94,10.17-24.85,24.94-24.85C635,651.68,642.95,662.93,641.78,680.58Zm-13-8.19c-.18-6.39-4.32-10.53-10.71-10.53-6.12,0-10.26,4.14-11.34,10.53Z"/><path class="cls-1" d="M719.92,643.76l-5.49,11.79c-6.66-4-14.58-6.48-19.63-6.48-4.77,0-8,1.71-8,5.13,0,11.61,33.58,5.13,33.49,27.82,0,12.33-10.71,19-24.67,19a44.24,44.24,0,0,1-27.82-10l5.67-11.61c6.48,5.76,15.66,9.45,22.33,9.45,5.85,0,9.36-2.16,9.36-6,0-11.88-33.58-5-33.58-27.28,0-11.43,9.81-18.64,24.4-18.64A45,45,0,0,1,719.92,643.76Z"/><path class="cls-1" d="M760,697.86a25.78,25.78,0,0,1-12.6,3.33c-8.64,0-15.21-5-15.21-14.94V663.83h-6.75v-9.54h6.75V641h13.77v13.32h13.14v9.63H745.94v20c0,4.05,1.71,5.67,4.68,5.58a16.1,16.1,0,0,0,6.48-1.8Z"/><path class="cls-1" d="M796.45,694.89c-3.24,4.05-8.46,6.3-15.21,6.3-10.35,0-16.66-6.3-16.66-15.12,0-9.09,6.57-14.49,18.46-14.58h13.32v-.9c0-5.13-3.42-8.1-10.08-8.1a30.66,30.66,0,0,0-14.4,4.23l-4.32-9.54c7.2-3.6,13.41-5.58,21.88-5.58,13,0,20.44,6.48,20.53,17.38l.09,31.6H796.45ZM796.36,684v-4.32H785.47c-5.31,0-7.92,1.62-7.92,5.49,0,3.69,2.88,6.12,7.56,6.12C791,691.29,795.55,688.14,796.36,684Z"/><path class="cls-1" d="M852,697.86a25.78,25.78,0,0,1-12.6,3.33c-8.64,0-15.21-5-15.21-14.94V663.83h-6.75v-9.54h6.75V641H838v13.32H851.1v9.63H838v20c0,4.05,1.71,5.67,4.68,5.58a16.1,16.1,0,0,0,6.48-1.8Z"/><path class="cls-1" d="M895.66,656.9l-4.77,9.45c-5.31-3-10.71-4.68-14.76-4.68-3.24,0-5.58,1.08-5.58,3.6,0,7.29,25.57,3.6,25.48,20.71,0,9.9-8.73,15.12-19.72,15.12-7.83,0-15.48-2.34-21-6.75l4.5-9.36a29.18,29.18,0,0,0,16.83,6c3.51,0,6.12-1.17,6.12-3.78,0-7.74-25.12-3.6-25.12-20.62,0-10,8.55-15.12,19.09-15.12A36.12,36.12,0,0,1,895.66,656.9Z"/><rect class="cls-1" x="506.45" y="499.39" width="67.1" height="58.15"/><rect class="cls-1" x="506.45" y="409.88" width="67.1" height="61.56"/><polygon class="cls-1" points="706.91 483.86 607 443.48 607 523.94 706.91 483.86"/><polygon class="cls-1" points="473 523.94 473 443.48 373.09 483.56 473 523.94"/><polygon class="cls-2" points="607 409.88 726.76 478.44 607 557.53 736.38 502.72 736.38 464.7 607 409.88"/><polygon class="cls-2" points="607 409.88 607 443.48 706.91 483.86 607 523.94 607 557.53 726.76 478.44 607 409.88"/><polygon class="cls-2" points="473 409.88 343.62 464.7 343.62 502.72 473 557.53 349.84 474.39 473 409.88"/><polygon class="cls-2" points="373.09 483.56 473 443.48 473 409.88 349.84 474.39 473 557.53 473 523.94 373.09 483.56"/></svg>